<svg xmlns="http://www.w3.org/2000/svg" xmlns:xlink="http://www.w3.org/1999/xlink" version="1.1" id="Layer_1" x="0px" y="0px" width="100px" height="100px" viewBox="0 0 100 100" enable-background="new 0 0 100 100" xml:space="preserve">
<g>
	<path d="M96.617,20.909H26.414l-5.057-10.115c-0.573-1.146-1.745-1.87-3.026-1.87H3.351c-1.868,0-3.382,1.515-3.382,3.383   c0,1.869,1.515,3.383,3.382,3.383h12.89l5.024,10.048c0.021,0.043,0.042,0.085,0.063,0.127l17.173,34.346   c0.573,1.146,1.744,1.87,3.025,1.87h55.09c1.868,0,3.383-1.514,3.383-3.383V24.292C100,22.423,98.485,20.909,96.617,20.909z    M55.541,45.409v-7.732h17.881v7.732H55.541z M73.422,48.791v6.524H55.541v-6.524H73.422z M34.798,37.677h17.361v7.732H38.665   L34.798,37.677z M55.541,34.294v-6.621h17.881v6.621H55.541z M76.805,37.677h16.43v7.732h-16.43V37.677z M93.234,34.294h-16.43   v-6.621h16.43V34.294z M52.159,27.674v6.621H33.107l-3.311-6.621H52.159z M40.355,48.791h11.804v6.524h-8.541L40.355,48.791z    M76.805,55.315v-6.524h16.43v6.524H76.805z"/>
	<circle cx="47.809" cy="85.277" r="5.799"/>
	<circle cx="86.71" cy="85.277" r="5.799"/>
	<path d="M90.152,67.938H43.885c-1.302,0-2.358,1.056-2.358,2.358c0,1.301,1.056,2.356,2.358,2.356h46.268   c1.303,0,2.357-1.056,2.357-2.356C92.51,68.994,91.455,67.938,90.152,67.938z"/>
</g>
</svg>