<svg xmlns="http://www.w3.org/2000/svg" xmlns:xlink="http://www.w3.org/1999/xlink" version="1.1" id="Layer_1" x="0px" y="0px" width="100px" height="82.7586206897px" viewBox="5.8 -9.6 116.0 129.6" enable-background="new 0 0 116 96" xml:space="preserve">
<path d="M78.384,27.748c0.076-0.568-0.096-1.144-0.483-1.572c-0.381-0.432-0.916-0.676-1.5-0.676H39.188  c-0.576,0-1.12,0.248-1.5,0.676c-0.376,0.432-0.552,1.004-0.484,1.576c0.04,0.312,3.716,31.477-17.892,58.5  c-0.48,0.6-0.576,1.424-0.244,2.116c0.332,0.696,1.036,1.132,1.804,1.132h73.836c0.765,0,1.468-0.436,1.804-1.132  c0.328-0.692,0.24-1.517-0.248-2.116C74.716,59.28,78.348,28.064,78.384,27.748z"/>
<path d="M60.38,20.084c-0.776,0.78-0.776,2.048,0,2.828c0.399,0.392,0.908,0.584,1.416,0.584c0.509,0,1.024-0.196,1.416-0.584  c2.528-2.524,1.261-5.768,0.34-8.14c-1.012-2.604-1.348-3.852-0.34-4.86c0.776-0.78,0.776-2.048,0-2.828  c-0.776-0.78-2.052-0.78-2.828,0c-2.956,2.96-1.571,6.532-0.56,9.14C60.74,18.576,60.968,19.508,60.38,20.084z"/>
<path d="M52.38,20.084c-0.776,0.78-0.776,2.048,0,2.828c0.396,0.392,0.908,0.584,1.416,0.584c0.508,0,1.024-0.196,1.416-0.584  c2.528-2.524,1.26-5.768,0.34-8.14c-1.012-2.604-1.348-3.852-0.34-4.86c0.78-0.78,0.78-2.048,0-2.828  c-0.776-0.78-2.048-0.78-2.828,0c-2.956,2.96-1.572,6.532-0.56,9.14C52.74,18.576,52.964,19.508,52.38,20.084z"/>
<path d="M115.355,86.252c-15.244-19.064-12.68-42.276-12.651-42.508c0.075-0.568-0.112-1.136-0.492-1.568  c-0.38-0.424-0.916-0.672-1.496-0.672H82.588c1.124,11.084,4.928,27.4,16.809,42.252c1.295,1.616,1.596,3.805,0.916,5.752h13.476  c0.764,0,1.464-0.436,1.8-1.132C115.932,87.676,115.832,86.852,115.355,86.252L115.355,86.252z"/>
<path d="M33.008,41.5H15.08c-0.576,0-1.116,0.248-1.496,0.672c-0.384,0.428-0.56,1-0.492,1.568  c0.028,0.232,2.584,23.451-12.652,42.508c-0.48,0.596-0.576,1.42-0.244,2.111C0.528,89.061,1.228,89.492,2,89.492h13.28  c-0.684-1.94-0.388-4.128,0.912-5.752C28.088,68.876,31.888,52.58,33.008,41.5z"/>
</svg>
